# Wavefront OBJ file automatically generated by Tiled2Unity

# Vertices (Count = 225)
v 0 -1 0
v -1 -1 0
v -1 0 0
v 0 0 0
v -2 -1 0
v -2 0 0
v -3 -1 0
v -3 0 0
v -4 -1 0
v -4 0 0
v -5 -1 0
v -5 0 0
v -6 -1 0
v -6 0 0
v -7 -1 0
v -7 0 0
v -8 -1 0
v -8 0 0
v -9 -1 0
v -9 0 0
v -10 -1 0
v -10 0 0
v -11 -1 0
v -11 0 0
v -12 -1 0
v -12 0 0
v -13 -1 0
v -13 0 0
v -14 -1 0
v -14 0 0
v 0 -2 0
v -1 -2 0
v -2 -2 0
v -3 -2 0
v -4 -2 0
v -5 -2 0
v -6 -2 0
v -7 -2 0
v -8 -2 0
v -9 -2 0
v -10 -2 0
v -11 -2 0
v -12 -2 0
v -13 -2 0
v -14 -2 0
v 0 -3 0
v -1 -3 0
v -2 -3 0
v -3 -3 0
v -4 -3 0
v -5 -3 0
v -6 -3 0
v -7 -3 0
v -8 -3 0
v -9 -3 0
v -10 -3 0
v -11 -3 0
v -12 -3 0
v -13 -3 0
v -14 -3 0
v 0 -4 0
v -1 -4 0
v -2 -4 0
v -3 -4 0
v -4 -4 0
v -5 -4 0
v -6 -4 0
v -7 -4 0
v -8 -4 0
v -9 -4 0
v -10 -4 0
v -11 -4 0
v -12 -4 0
v -13 -4 0
v -14 -4 0
v 0 -5 0
v -1 -5 0
v -2 -5 0
v -3 -5 0
v -4 -5 0
v -5 -5 0
v -6 -5 0
v -7 -5 0
v -8 -5 0
v -9 -5 0
v -10 -5 0
v -11 -5 0
v -12 -5 0
v -13 -5 0
v -14 -5 0
v 0 -6 0
v -1 -6 0
v -2 -6 0
v -3 -6 0
v -4 -6 0
v -5 -6 0
v -6 -6 0
v -7 -6 0
v -8 -6 0
v -9 -6 0
v -10 -6 0
v -11 -6 0
v -12 -6 0
v -13 -6 0
v -14 -6 0
v 0 -7 0
v -1 -7 0
v -2 -7 0
v -3 -7 0
v -4 -7 0
v -5 -7 0
v -6 -7 0
v -7 -7 0
v -8 -7 0
v -9 -7 0
v -10 -7 0
v -11 -7 0
v -12 -7 0
v -13 -7 0
v -14 -7 0
v 0 -8 0
v -1 -8 0
v -2 -8 0
v -3 -8 0
v -4 -8 0
v -5 -8 0
v -6 -8 0
v -7 -8 0
v -8 -8 0
v -9 -8 0
v -10 -8 0
v -11 -8 0
v -12 -8 0
v -13 -8 0
v -14 -8 0
v 0 -9 0
v -1 -9 0
v -2 -9 0
v -3 -9 0
v -4 -9 0
v -5 -9 0
v -6 -9 0
v -7 -9 0
v -8 -9 0
v -9 -9 0
v -10 -9 0
v -11 -9 0
v -12 -9 0
v -13 -9 0
v -14 -9 0
v 0 -10 0
v -1 -10 0
v -2 -10 0
v -3 -10 0
v -4 -10 0
v -5 -10 0
v -6 -10 0
v -7 -10 0
v -8 -10 0
v -9 -10 0
v -10 -10 0
v -11 -10 0
v -12 -10 0
v -13 -10 0
v -14 -10 0
v 0 -11 0
v -1 -11 0
v -2 -11 0
v -3 -11 0
v -4 -11 0
v -5 -11 0
v -6 -11 0
v -7 -11 0
v -8 -11 0
v -9 -11 0
v -10 -11 0
v -11 -11 0
v -12 -11 0
v -13 -11 0
v -14 -11 0
v 0 -12 0
v -1 -12 0
v -2 -12 0
v -3 -12 0
v -4 -12 0
v -5 -12 0
v -6 -12 0
v -7 -12 0
v -8 -12 0
v -9 -12 0
v -10 -12 0
v -11 -12 0
v -12 -12 0
v -13 -12 0
v -14 -12 0
v 0 -13 0
v -1 -13 0
v -2 -13 0
v -3 -13 0
v -4 -13 0
v -5 -13 0
v -6 -13 0
v -7 -13 0
v -8 -13 0
v -9 -13 0
v -10 -13 0
v -11 -13 0
v -12 -13 0
v -13 -13 0
v -14 -13 0
v 0 -14 0
v -1 -14 0
v -2 -14 0
v -3 -14 0
v -4 -14 0
v -5 -14 0
v -6 -14 0
v -7 -14 0
v -8 -14 0
v -9 -14 0
v -10 -14 0
v -11 -14 0
v -12 -14 0
v -13 -14 0
v -14 -14 0

# Texture cooridinates (Count = 48)
vt 0.1283166 0.6683613
vt 0.2490419 0.6683613
vt 0.2490419 0.8291261
vt 0.1283166 0.8291261
vt 0.3773732 0.5025322
vt 0.4980985 0.5025322
vt 0.4980985 0.6632969
vt 0.3773732 0.6632969
vt 0.1283166 0.5025322
vt 0.2490419 0.5025322
vt 0.2490419 0.6632969
vt 0.1283166 0.6632969
vt 0.5019015 0.5025322
vt 0.6226268 0.5025322
vt 0.6226268 0.6632969
vt 0.5019015 0.6632969
vt 0.2528449 0.6683613
vt 0.3735702 0.6683613
vt 0.3735702 0.8291261
vt 0.2528449 0.8291261
vt 0.7509581 0.6683613
vt 0.8716834 0.6683613
vt 0.8716834 0.8291261
vt 0.7509581 0.8291261
vt 0.003788325 0.6683613
vt 0.1245136 0.6683613
vt 0.1245136 0.8291261
vt 0.003788325 0.8291261
vt 0.003788325 0.8341905
vt 0.1245136 0.8341905
vt 0.1245136 0.9949552
vt 0.003788325 0.9949552
vt 0.1283166 0.8341905
vt 0.2490419 0.8341905
vt 0.2490419 0.9949552
vt 0.1283166 0.9949552
vt 0.5019015 0.3367031
vt 0.6226268 0.3367031
vt 0.6226268 0.4974678
vt 0.5019015 0.4974678
vt 0.003788325 0.5025322
vt 0.1245136 0.5025322
vt 0.1245136 0.6632969
vt 0.003788325 0.6632969
vt 0.3773732 0.3367031
vt 0.4980985 0.3367031
vt 0.4980985 0.4974678
vt 0.3773732 0.4974678

# Normal
vn 0 0 -1

# Groups (Count = 1)

g mesh_0001
f 1/1/1 2/2/1 3/3/1 4/4/1
f 2/1/1 5/2/1 6/3/1 3/4/1
f 5/1/1 7/2/1 8/3/1 6/4/1
f 7/1/1 9/2/1 10/3/1 8/4/1
f 9/1/1 11/2/1 12/3/1 10/4/1
f 11/1/1 13/2/1 14/3/1 12/4/1
f 13/1/1 15/2/1 16/3/1 14/4/1
f 15/1/1 17/2/1 18/3/1 16/4/1
f 17/1/1 19/2/1 20/3/1 18/4/1
f 19/1/1 21/2/1 22/3/1 20/4/1
f 21/1/1 23/2/1 24/3/1 22/4/1
f 23/1/1 25/2/1 26/3/1 24/4/1
f 25/1/1 27/2/1 28/3/1 26/4/1
f 27/1/1 29/2/1 30/3/1 28/4/1
f 31/1/1 32/2/1 2/3/1 1/4/1
f 32/1/1 33/2/1 5/3/1 2/4/1
f 33/1/1 34/2/1 7/3/1 5/4/1
f 34/5/1 35/6/1 9/7/1 7/8/1
f 35/9/1 36/10/1 11/11/1 9/12/1
f 36/9/1 37/10/1 13/11/1 11/12/1
f 37/9/1 38/10/1 15/11/1 13/12/1
f 38/9/1 39/10/1 17/11/1 15/12/1
f 39/9/1 40/10/1 19/11/1 17/12/1
f 40/9/1 41/10/1 21/11/1 19/12/1
f 41/13/1 42/14/1 23/15/1 21/16/1
f 42/1/1 43/2/1 25/3/1 23/4/1
f 43/1/1 44/2/1 27/3/1 25/4/1
f 44/1/1 45/2/1 29/3/1 27/4/1
f 46/1/1 47/2/1 32/3/1 31/4/1
f 47/1/1 48/2/1 33/3/1 32/4/1
f 48/1/1 49/2/1 34/3/1 33/4/1
f 49/17/1 50/18/1 35/19/1 34/20/1
f 50/21/1 51/22/1 36/23/1 35/24/1
f 51/21/1 52/22/1 37/23/1 36/24/1
f 52/21/1 53/22/1 38/23/1 37/24/1
f 53/21/1 54/22/1 39/23/1 38/24/1
f 54/21/1 55/22/1 40/23/1 39/24/1
f 55/21/1 56/22/1 41/23/1 40/24/1
f 56/25/1 57/26/1 42/27/1 41/28/1
f 57/1/1 58/2/1 43/3/1 42/4/1
f 58/1/1 59/2/1 44/3/1 43/4/1
f 59/1/1 60/2/1 45/3/1 44/4/1
f 61/1/1 62/2/1 47/3/1 46/4/1
f 62/1/1 63/2/1 48/3/1 47/4/1
f 63/1/1 64/2/1 49/3/1 48/4/1
f 64/17/1 65/18/1 50/19/1 49/20/1
f 65/21/1 66/22/1 51/23/1 50/24/1
f 66/21/1 67/22/1 52/23/1 51/24/1
f 67/21/1 68/22/1 53/23/1 52/24/1
f 68/21/1 69/22/1 54/23/1 53/24/1
f 69/21/1 70/22/1 55/23/1 54/24/1
f 70/21/1 71/22/1 56/23/1 55/24/1
f 71/25/1 72/26/1 57/27/1 56/28/1
f 72/1/1 73/2/1 58/3/1 57/4/1
f 73/1/1 74/2/1 59/3/1 58/4/1
f 74/1/1 75/2/1 60/3/1 59/4/1
f 76/1/1 77/2/1 62/3/1 61/4/1
f 77/1/1 78/2/1 63/3/1 62/4/1
f 78/1/1 79/2/1 64/3/1 63/4/1
f 79/17/1 80/18/1 65/19/1 64/20/1
f 80/29/1 81/30/1 66/31/1 65/32/1
f 81/33/1 82/34/1 67/35/1 66/36/1
f 82/33/1 83/34/1 68/35/1 67/36/1
f 83/33/1 84/34/1 69/35/1 68/36/1
f 84/33/1 85/34/1 70/35/1 69/36/1
f 85/33/1 86/34/1 71/35/1 70/36/1
f 86/37/1 87/38/1 72/39/1 71/40/1
f 87/1/1 88/2/1 73/3/1 72/4/1
f 88/1/1 89/2/1 74/3/1 73/4/1
f 89/1/1 90/2/1 75/3/1 74/4/1
f 91/1/1 92/2/1 77/3/1 76/4/1
f 92/1/1 93/2/1 78/3/1 77/4/1
f 93/1/1 94/2/1 79/3/1 78/4/1
f 94/17/1 95/18/1 80/19/1 79/20/1
f 95/25/1 96/26/1 81/27/1 80/28/1
f 96/1/1 97/2/1 82/3/1 81/4/1
f 97/1/1 98/2/1 83/3/1 82/4/1
f 98/1/1 99/2/1 84/3/1 83/4/1
f 99/1/1 100/2/1 85/3/1 84/4/1
f 100/1/1 101/2/1 86/3/1 85/4/1
f 101/1/1 102/2/1 87/3/1 86/4/1
f 102/1/1 103/2/1 88/3/1 87/4/1
f 103/1/1 104/2/1 89/3/1 88/4/1
f 104/1/1 105/2/1 90/3/1 89/4/1
f 106/1/1 107/2/1 92/3/1 91/4/1
f 107/1/1 108/2/1 93/3/1 92/4/1
f 108/1/1 109/2/1 94/3/1 93/4/1
f 109/17/1 110/18/1 95/19/1 94/20/1
f 110/41/1 111/42/1 96/43/1 95/44/1
f 111/9/1 112/10/1 97/11/1 96/12/1
f 112/9/1 113/10/1 98/11/1 97/12/1
f 113/9/1 114/10/1 99/11/1 98/12/1
f 114/9/1 115/10/1 100/11/1 99/12/1
f 115/9/1 116/10/1 101/11/1 100/12/1
f 116/9/1 117/10/1 102/11/1 101/12/1
f 117/9/1 118/10/1 103/11/1 102/12/1
f 118/9/1 119/10/1 104/11/1 103/12/1
f 119/9/1 120/10/1 105/11/1 104/12/1
f 121/1/1 122/2/1 107/3/1 106/4/1
f 122/1/1 123/2/1 108/3/1 107/4/1
f 123/1/1 124/2/1 109/3/1 108/4/1
f 124/45/1 125/46/1 110/47/1 109/48/1
f 125/33/1 126/34/1 111/35/1 110/36/1
f 126/33/1 127/34/1 112/35/1 111/36/1
f 127/33/1 128/34/1 113/35/1 112/36/1
f 128/33/1 129/34/1 114/35/1 113/36/1
f 129/33/1 130/34/1 115/35/1 114/36/1
f 130/33/1 131/34/1 116/35/1 115/36/1
f 131/33/1 132/34/1 117/35/1 116/36/1
f 132/33/1 133/34/1 118/35/1 117/36/1
f 133/33/1 134/34/1 119/35/1 118/36/1
f 134/33/1 135/34/1 120/35/1 119/36/1
f 136/1/1 137/2/1 122/3/1 121/4/1
f 137/1/1 138/2/1 123/3/1 122/4/1
f 138/1/1 139/2/1 124/3/1 123/4/1
f 139/1/1 140/2/1 125/3/1 124/4/1
f 140/1/1 141/2/1 126/3/1 125/4/1
f 141/1/1 142/2/1 127/3/1 126/4/1
f 142/1/1 143/2/1 128/3/1 127/4/1
f 143/1/1 144/2/1 129/3/1 128/4/1
f 144/1/1 145/2/1 130/3/1 129/4/1
f 145/1/1 146/2/1 131/3/1 130/4/1
f 146/1/1 147/2/1 132/3/1 131/4/1
f 147/1/1 148/2/1 133/3/1 132/4/1
f 148/1/1 149/2/1 134/3/1 133/4/1
f 149/1/1 150/2/1 135/3/1 134/4/1
f 151/1/1 152/2/1 137/3/1 136/4/1
f 152/1/1 153/2/1 138/3/1 137/4/1
f 153/1/1 154/2/1 139/3/1 138/4/1
f 154/1/1 155/2/1 140/3/1 139/4/1
f 155/1/1 156/2/1 141/3/1 140/4/1
f 156/1/1 157/2/1 142/3/1 141/4/1
f 157/1/1 158/2/1 143/3/1 142/4/1
f 158/1/1 159/2/1 144/3/1 143/4/1
f 159/1/1 160/2/1 145/3/1 144/4/1
f 160/1/1 161/2/1 146/3/1 145/4/1
f 161/1/1 162/2/1 147/3/1 146/4/1
f 162/1/1 163/2/1 148/3/1 147/4/1
f 163/1/1 164/2/1 149/3/1 148/4/1
f 164/1/1 165/2/1 150/3/1 149/4/1
f 166/1/1 167/2/1 152/3/1 151/4/1
f 167/1/1 168/2/1 153/3/1 152/4/1
f 168/1/1 169/2/1 154/3/1 153/4/1
f 169/1/1 170/2/1 155/3/1 154/4/1
f 170/1/1 171/2/1 156/3/1 155/4/1
f 171/1/1 172/2/1 157/3/1 156/4/1
f 172/1/1 173/2/1 158/3/1 157/4/1
f 173/1/1 174/2/1 159/3/1 158/4/1
f 174/1/1 175/2/1 160/3/1 159/4/1
f 175/1/1 176/2/1 161/3/1 160/4/1
f 176/1/1 177/2/1 162/3/1 161/4/1
f 177/1/1 178/2/1 163/3/1 162/4/1
f 178/1/1 179/2/1 164/3/1 163/4/1
f 179/1/1 180/2/1 165/3/1 164/4/1
f 181/1/1 182/2/1 167/3/1 166/4/1
f 182/1/1 183/2/1 168/3/1 167/4/1
f 183/1/1 184/2/1 169/3/1 168/4/1
f 184/1/1 185/2/1 170/3/1 169/4/1
f 185/1/1 186/2/1 171/3/1 170/4/1
f 186/1/1 187/2/1 172/3/1 171/4/1
f 187/1/1 188/2/1 173/3/1 172/4/1
f 188/1/1 189/2/1 174/3/1 173/4/1
f 189/1/1 190/2/1 175/3/1 174/4/1
f 190/1/1 191/2/1 176/3/1 175/4/1
f 191/1/1 192/2/1 177/3/1 176/4/1
f 192/1/1 193/2/1 178/3/1 177/4/1
f 193/1/1 194/2/1 179/3/1 178/4/1
f 194/1/1 195/2/1 180/3/1 179/4/1
f 196/1/1 197/2/1 182/3/1 181/4/1
f 197/1/1 198/2/1 183/3/1 182/4/1
f 198/1/1 199/2/1 184/3/1 183/4/1
f 199/1/1 200/2/1 185/3/1 184/4/1
f 200/1/1 201/2/1 186/3/1 185/4/1
f 201/1/1 202/2/1 187/3/1 186/4/1
f 202/1/1 203/2/1 188/3/1 187/4/1
f 203/1/1 204/2/1 189/3/1 188/4/1
f 204/1/1 205/2/1 190/3/1 189/4/1
f 205/1/1 206/2/1 191/3/1 190/4/1
f 206/1/1 207/2/1 192/3/1 191/4/1
f 207/1/1 208/2/1 193/3/1 192/4/1
f 208/1/1 209/2/1 194/3/1 193/4/1
f 209/1/1 210/2/1 195/3/1 194/4/1
f 211/1/1 212/2/1 197/3/1 196/4/1
f 212/1/1 213/2/1 198/3/1 197/4/1
f 213/1/1 214/2/1 199/3/1 198/4/1
f 214/1/1 215/2/1 200/3/1 199/4/1
f 215/1/1 216/2/1 201/3/1 200/4/1
f 216/1/1 217/2/1 202/3/1 201/4/1
f 217/1/1 218/2/1 203/3/1 202/4/1
f 218/1/1 219/2/1 204/3/1 203/4/1
f 219/1/1 220/2/1 205/3/1 204/4/1
f 220/1/1 221/2/1 206/3/1 205/4/1
f 221/1/1 222/2/1 207/3/1 206/4/1
f 222/1/1 223/2/1 208/3/1 207/4/1
f 223/1/1 224/2/1 209/3/1 208/4/1
f 224/1/1 225/2/1 210/3/1 209/4/1

