# Wavefront OBJ file automatically generated by Tiled2Unity

# Vertices (Count = 225)
v 0 -1 0
v -1 -1 0
v -1 0 0
v 0 0 0
v -2 -1 0
v -2 0 0
v -3 -1 0
v -3 0 0
v -4 -1 0
v -4 0 0
v -5 -1 0
v -5 0 0
v -6 -1 0
v -6 0 0
v -7 -1 0
v -7 0 0
v -8 -1 0
v -8 0 0
v -9 -1 0
v -9 0 0
v -10 -1 0
v -10 0 0
v -11 -1 0
v -11 0 0
v -12 -1 0
v -12 0 0
v -13 -1 0
v -13 0 0
v -14 -1 0
v -14 0 0
v 0 -2 0
v -1 -2 0
v -2 -2 0
v -3 -2 0
v -4 -2 0
v -5 -2 0
v -6 -2 0
v -7 -2 0
v -8 -2 0
v -9 -2 0
v -10 -2 0
v -11 -2 0
v -12 -2 0
v -13 -2 0
v -14 -2 0
v 0 -3 0
v -1 -3 0
v -2 -3 0
v -3 -3 0
v -4 -3 0
v -5 -3 0
v -6 -3 0
v -7 -3 0
v -8 -3 0
v -9 -3 0
v -10 -3 0
v -11 -3 0
v -12 -3 0
v -13 -3 0
v -14 -3 0
v 0 -4 0
v -1 -4 0
v -2 -4 0
v -3 -4 0
v -4 -4 0
v -5 -4 0
v -6 -4 0
v -7 -4 0
v -8 -4 0
v -9 -4 0
v -10 -4 0
v -11 -4 0
v -12 -4 0
v -13 -4 0
v -14 -4 0
v 0 -5 0
v -1 -5 0
v -2 -5 0
v -3 -5 0
v -4 -5 0
v -5 -5 0
v -6 -5 0
v -7 -5 0
v -8 -5 0
v -9 -5 0
v -10 -5 0
v -11 -5 0
v -12 -5 0
v -13 -5 0
v -14 -5 0
v 0 -6 0
v -1 -6 0
v -2 -6 0
v -3 -6 0
v -4 -6 0
v -5 -6 0
v -6 -6 0
v -7 -6 0
v -8 -6 0
v -9 -6 0
v -10 -6 0
v -11 -6 0
v -12 -6 0
v -13 -6 0
v -14 -6 0
v 0 -7 0
v -1 -7 0
v -2 -7 0
v -3 -7 0
v -4 -7 0
v -5 -7 0
v -6 -7 0
v -7 -7 0
v -8 -7 0
v -9 -7 0
v -10 -7 0
v -11 -7 0
v -12 -7 0
v -13 -7 0
v -14 -7 0
v 0 -8 0
v -1 -8 0
v -2 -8 0
v -3 -8 0
v -4 -8 0
v -5 -8 0
v -6 -8 0
v -7 -8 0
v -8 -8 0
v -9 -8 0
v -10 -8 0
v -11 -8 0
v -12 -8 0
v -13 -8 0
v -14 -8 0
v 0 -9 0
v -1 -9 0
v -2 -9 0
v -3 -9 0
v -4 -9 0
v -5 -9 0
v -6 -9 0
v -7 -9 0
v -8 -9 0
v -9 -9 0
v -10 -9 0
v -11 -9 0
v -12 -9 0
v -13 -9 0
v -14 -9 0
v 0 -10 0
v -1 -10 0
v -2 -10 0
v -3 -10 0
v -4 -10 0
v -5 -10 0
v -6 -10 0
v -7 -10 0
v -8 -10 0
v -9 -10 0
v -10 -10 0
v -11 -10 0
v -12 -10 0
v -13 -10 0
v -14 -10 0
v 0 -11 0
v -1 -11 0
v -2 -11 0
v -3 -11 0
v -4 -11 0
v -5 -11 0
v -6 -11 0
v -7 -11 0
v -8 -11 0
v -9 -11 0
v -10 -11 0
v -11 -11 0
v -12 -11 0
v -13 -11 0
v -14 -11 0
v 0 -12 0
v -1 -12 0
v -2 -12 0
v -3 -12 0
v -4 -12 0
v -5 -12 0
v -6 -12 0
v -7 -12 0
v -8 -12 0
v -9 -12 0
v -10 -12 0
v -11 -12 0
v -12 -12 0
v -13 -12 0
v -14 -12 0
v 0 -13 0
v -1 -13 0
v -2 -13 0
v -3 -13 0
v -4 -13 0
v -5 -13 0
v -6 -13 0
v -7 -13 0
v -8 -13 0
v -9 -13 0
v -10 -13 0
v -11 -13 0
v -12 -13 0
v -13 -13 0
v -14 -13 0
v 0 -14 0
v -1 -14 0
v -2 -14 0
v -3 -14 0
v -4 -14 0
v -5 -14 0
v -6 -14 0
v -7 -14 0
v -8 -14 0
v -9 -14 0
v -10 -14 0
v -11 -14 0
v -12 -14 0
v -13 -14 0
v -14 -14 0

# Texture cooridinates (Count = 40)
vt 0.1283166 0.6683613
vt 0.2490419 0.6683613
vt 0.2490419 0.8291261
vt 0.1283166 0.8291261
vt 0.1283166 0.5025322
vt 0.2490419 0.5025322
vt 0.2490419 0.6632969
vt 0.1283166 0.6632969
vt 0.5019015 0.5025322
vt 0.6226268 0.5025322
vt 0.6226268 0.6632969
vt 0.5019015 0.6632969
vt 0.6264299 0.3367031
vt 0.7471551 0.3367031
vt 0.7471551 0.4974678
vt 0.6264299 0.4974678
vt 0.003788325 0.6683613
vt 0.1245136 0.6683613
vt 0.1245136 0.8291261
vt 0.003788325 0.8291261
vt 0.1283166 0.8341905
vt 0.2490419 0.8341905
vt 0.2490419 0.9949552
vt 0.1283166 0.9949552
vt 0.2528449 0.8341905
vt 0.3735702 0.8341905
vt 0.3735702 0.9949552
vt 0.2528449 0.9949552
vt 0.2528449 0.6683613
vt 0.3735702 0.6683613
vt 0.3735702 0.8291261
vt 0.2528449 0.8291261
vt 0.3773732 0.3367031
vt 0.4980985 0.3367031
vt 0.4980985 0.4974678
vt 0.3773732 0.4974678
vt 0.5019015 0.3367031
vt 0.6226268 0.3367031
vt 0.6226268 0.4974678
vt 0.5019015 0.4974678

# Normal
vn 0 0 -1

# Groups (Count = 1)

g mesh_0001
f 1/1/1 2/2/1 3/3/1 4/4/1
f 2/1/1 5/2/1 6/3/1 3/4/1
f 5/1/1 7/2/1 8/3/1 6/4/1
f 7/1/1 9/2/1 10/3/1 8/4/1
f 9/1/1 11/2/1 12/3/1 10/4/1
f 11/1/1 13/2/1 14/3/1 12/4/1
f 13/1/1 15/2/1 16/3/1 14/4/1
f 15/1/1 17/2/1 18/3/1 16/4/1
f 17/1/1 19/2/1 20/3/1 18/4/1
f 19/1/1 21/2/1 22/3/1 20/4/1
f 21/1/1 23/2/1 24/3/1 22/4/1
f 23/1/1 25/2/1 26/3/1 24/4/1
f 25/1/1 27/2/1 28/3/1 26/4/1
f 27/1/1 29/2/1 30/3/1 28/4/1
f 31/5/1 32/6/1 2/7/1 1/8/1
f 32/5/1 33/6/1 5/7/1 2/8/1
f 33/5/1 34/6/1 7/7/1 5/8/1
f 34/5/1 35/6/1 9/7/1 7/8/1
f 35/5/1 36/6/1 11/7/1 9/8/1
f 36/5/1 37/6/1 13/7/1 11/8/1
f 37/5/1 38/6/1 15/7/1 13/8/1
f 38/5/1 39/6/1 17/7/1 15/8/1
f 39/5/1 40/6/1 19/7/1 17/8/1
f 40/5/1 41/6/1 21/7/1 19/8/1
f 41/5/1 42/6/1 23/7/1 21/8/1
f 42/5/1 43/6/1 25/7/1 23/8/1
f 43/9/1 44/10/1 27/11/1 25/12/1
f 44/1/1 45/2/1 29/3/1 27/4/1
f 46/13/1 47/14/1 32/15/1 31/16/1
f 47/13/1 48/14/1 33/15/1 32/16/1
f 48/13/1 49/14/1 34/15/1 33/16/1
f 49/13/1 50/14/1 35/15/1 34/16/1
f 50/13/1 51/14/1 36/15/1 35/16/1
f 51/13/1 52/14/1 37/15/1 36/16/1
f 52/13/1 53/14/1 38/15/1 37/16/1
f 53/13/1 54/14/1 39/15/1 38/16/1
f 54/13/1 55/14/1 40/15/1 39/16/1
f 55/13/1 56/14/1 41/15/1 40/16/1
f 56/13/1 57/14/1 42/15/1 41/16/1
f 57/13/1 58/14/1 43/15/1 42/16/1
f 58/17/1 59/18/1 44/19/1 43/20/1
f 59/1/1 60/2/1 45/3/1 44/4/1
f 61/13/1 62/14/1 47/15/1 46/16/1
f 62/13/1 63/14/1 48/15/1 47/16/1
f 63/13/1 64/14/1 49/15/1 48/16/1
f 64/13/1 65/14/1 50/15/1 49/16/1
f 65/13/1 66/14/1 51/15/1 50/16/1
f 66/13/1 67/14/1 52/15/1 51/16/1
f 67/13/1 68/14/1 53/15/1 52/16/1
f 68/13/1 69/14/1 54/15/1 53/16/1
f 69/13/1 70/14/1 55/15/1 54/16/1
f 70/13/1 71/14/1 56/15/1 55/16/1
f 71/13/1 72/14/1 57/15/1 56/16/1
f 72/13/1 73/14/1 58/15/1 57/16/1
f 73/17/1 74/18/1 59/19/1 58/20/1
f 74/1/1 75/2/1 60/3/1 59/4/1
f 76/21/1 77/22/1 62/23/1 61/24/1
f 77/25/1 78/26/1 63/27/1 62/28/1
f 78/13/1 79/14/1 64/15/1 63/16/1
f 79/13/1 80/14/1 65/15/1 64/16/1
f 80/13/1 81/14/1 66/15/1 65/16/1
f 81/13/1 82/14/1 67/15/1 66/16/1
f 82/13/1 83/14/1 68/15/1 67/16/1
f 83/13/1 84/14/1 69/15/1 68/16/1
f 84/13/1 85/14/1 70/15/1 69/16/1
f 85/13/1 86/14/1 71/15/1 70/16/1
f 86/13/1 87/14/1 72/15/1 71/16/1
f 87/13/1 88/14/1 73/15/1 72/16/1
f 88/17/1 89/18/1 74/19/1 73/20/1
f 89/1/1 90/2/1 75/3/1 74/4/1
f 91/1/1 92/2/1 77/3/1 76/4/1
f 92/29/1 93/30/1 78/31/1 77/32/1
f 93/13/1 94/14/1 79/15/1 78/16/1
f 94/13/1 95/14/1 80/15/1 79/16/1
f 95/13/1 96/14/1 81/15/1 80/16/1
f 96/13/1 97/14/1 82/15/1 81/16/1
f 97/13/1 98/14/1 83/15/1 82/16/1
f 98/13/1 99/14/1 84/15/1 83/16/1
f 99/13/1 100/14/1 85/15/1 84/16/1
f 100/13/1 101/14/1 86/15/1 85/16/1
f 101/13/1 102/14/1 87/15/1 86/16/1
f 102/13/1 103/14/1 88/15/1 87/16/1
f 103/17/1 104/18/1 89/19/1 88/20/1
f 104/1/1 105/2/1 90/3/1 89/4/1
f 106/1/1 107/2/1 92/3/1 91/4/1
f 107/29/1 108/30/1 93/31/1 92/32/1
f 108/13/1 109/14/1 94/15/1 93/16/1
f 109/13/1 110/14/1 95/15/1 94/16/1
f 110/13/1 111/14/1 96/15/1 95/16/1
f 111/13/1 112/14/1 97/15/1 96/16/1
f 112/13/1 113/14/1 98/15/1 97/16/1
f 113/13/1 114/14/1 99/15/1 98/16/1
f 114/13/1 115/14/1 100/15/1 99/16/1
f 115/13/1 116/14/1 101/15/1 100/16/1
f 116/13/1 117/14/1 102/15/1 101/16/1
f 117/13/1 118/14/1 103/15/1 102/16/1
f 118/17/1 119/18/1 104/19/1 103/20/1
f 119/1/1 120/2/1 105/3/1 104/4/1
f 121/1/1 122/2/1 107/3/1 106/4/1
f 122/29/1 123/30/1 108/31/1 107/32/1
f 123/13/1 124/14/1 109/15/1 108/16/1
f 124/13/1 125/14/1 110/15/1 109/16/1
f 125/13/1 126/14/1 111/15/1 110/16/1
f 126/13/1 127/14/1 112/15/1 111/16/1
f 127/13/1 128/14/1 113/15/1 112/16/1
f 128/13/1 129/14/1 114/15/1 113/16/1
f 129/13/1 130/14/1 115/15/1 114/16/1
f 130/13/1 131/14/1 116/15/1 115/16/1
f 131/13/1 132/14/1 117/15/1 116/16/1
f 132/13/1 133/14/1 118/15/1 117/16/1
f 133/17/1 134/18/1 119/19/1 118/20/1
f 134/1/1 135/2/1 120/3/1 119/4/1
f 136/1/1 137/2/1 122/3/1 121/4/1
f 137/29/1 138/30/1 123/31/1 122/32/1
f 138/13/1 139/14/1 124/15/1 123/16/1
f 139/13/1 140/14/1 125/15/1 124/16/1
f 140/13/1 141/14/1 126/15/1 125/16/1
f 141/13/1 142/14/1 127/15/1 126/16/1
f 142/13/1 143/14/1 128/15/1 127/16/1
f 143/13/1 144/14/1 129/15/1 128/16/1
f 144/13/1 145/14/1 130/15/1 129/16/1
f 145/13/1 146/14/1 131/15/1 130/16/1
f 146/13/1 147/14/1 132/15/1 131/16/1
f 147/13/1 148/14/1 133/15/1 132/16/1
f 148/17/1 149/18/1 134/19/1 133/20/1
f 149/1/1 150/2/1 135/3/1 134/4/1
f 151/1/1 152/2/1 137/3/1 136/4/1
f 152/29/1 153/30/1 138/31/1 137/32/1
f 153/13/1 154/14/1 139/15/1 138/16/1
f 154/13/1 155/14/1 140/15/1 139/16/1
f 155/13/1 156/14/1 141/15/1 140/16/1
f 156/13/1 157/14/1 142/15/1 141/16/1
f 157/13/1 158/14/1 143/15/1 142/16/1
f 158/13/1 159/14/1 144/15/1 143/16/1
f 159/13/1 160/14/1 145/15/1 144/16/1
f 160/13/1 161/14/1 146/15/1 145/16/1
f 161/13/1 162/14/1 147/15/1 146/16/1
f 162/13/1 163/14/1 148/15/1 147/16/1
f 163/17/1 164/18/1 149/19/1 148/20/1
f 164/1/1 165/2/1 150/3/1 149/4/1
f 166/1/1 167/2/1 152/3/1 151/4/1
f 167/29/1 168/30/1 153/31/1 152/32/1
f 168/13/1 169/14/1 154/15/1 153/16/1
f 169/13/1 170/14/1 155/15/1 154/16/1
f 170/13/1 171/14/1 156/15/1 155/16/1
f 171/13/1 172/14/1 157/15/1 156/16/1
f 172/13/1 173/14/1 158/15/1 157/16/1
f 173/13/1 174/14/1 159/15/1 158/16/1
f 174/13/1 175/14/1 160/15/1 159/16/1
f 175/13/1 176/14/1 161/15/1 160/16/1
f 176/13/1 177/14/1 162/15/1 161/16/1
f 177/13/1 178/14/1 163/15/1 162/16/1
f 178/17/1 179/18/1 164/19/1 163/20/1
f 179/1/1 180/2/1 165/3/1 164/4/1
f 181/1/1 182/2/1 167/3/1 166/4/1
f 182/29/1 183/30/1 168/31/1 167/32/1
f 183/13/1 184/14/1 169/15/1 168/16/1
f 184/13/1 185/14/1 170/15/1 169/16/1
f 185/13/1 186/14/1 171/15/1 170/16/1
f 186/13/1 187/14/1 172/15/1 171/16/1
f 187/13/1 188/14/1 173/15/1 172/16/1
f 188/13/1 189/14/1 174/15/1 173/16/1
f 189/13/1 190/14/1 175/15/1 174/16/1
f 190/13/1 191/14/1 176/15/1 175/16/1
f 191/13/1 192/14/1 177/15/1 176/16/1
f 192/13/1 193/14/1 178/15/1 177/16/1
f 193/17/1 194/18/1 179/19/1 178/20/1
f 194/1/1 195/2/1 180/3/1 179/4/1
f 196/1/1 197/2/1 182/3/1 181/4/1
f 197/33/1 198/34/1 183/35/1 182/36/1
f 198/21/1 199/22/1 184/23/1 183/24/1
f 199/21/1 200/22/1 185/23/1 184/24/1
f 200/21/1 201/22/1 186/23/1 185/24/1
f 201/21/1 202/22/1 187/23/1 186/24/1
f 202/21/1 203/22/1 188/23/1 187/24/1
f 203/21/1 204/22/1 189/23/1 188/24/1
f 204/21/1 205/22/1 190/23/1 189/24/1
f 205/21/1 206/22/1 191/23/1 190/24/1
f 206/21/1 207/22/1 192/23/1 191/24/1
f 207/21/1 208/22/1 193/23/1 192/24/1
f 208/37/1 209/38/1 194/39/1 193/40/1
f 209/1/1 210/2/1 195/3/1 194/4/1
f 211/1/1 212/2/1 197/3/1 196/4/1
f 212/1/1 213/2/1 198/3/1 197/4/1
f 213/1/1 214/2/1 199/3/1 198/4/1
f 214/1/1 215/2/1 200/3/1 199/4/1
f 215/1/1 216/2/1 201/3/1 200/4/1
f 216/1/1 217/2/1 202/3/1 201/4/1
f 217/1/1 218/2/1 203/3/1 202/4/1
f 218/1/1 219/2/1 204/3/1 203/4/1
f 219/1/1 220/2/1 205/3/1 204/4/1
f 220/1/1 221/2/1 206/3/1 205/4/1
f 221/1/1 222/2/1 207/3/1 206/4/1
f 222/1/1 223/2/1 208/3/1 207/4/1
f 223/1/1 224/2/1 209/3/1 208/4/1
f 224/1/1 225/2/1 210/3/1 209/4/1

