# Wavefront OBJ file automatically generated by Tiled2Unity

# Vertices (Count = 289)
v 0 -1 0
v -1 -1 0
v -1 0 0
v 0 0 0
v -2 -1 0
v -2 0 0
v -3 -1 0
v -3 0 0
v -4 -1 0
v -4 0 0
v -5 -1 0
v -5 0 0
v -6 -1 0
v -6 0 0
v -7 -1 0
v -7 0 0
v -8 -1 0
v -8 0 0
v -9 -1 0
v -9 0 0
v -10 -1 0
v -10 0 0
v -11 -1 0
v -11 0 0
v -12 -1 0
v -12 0 0
v -13 -1 0
v -13 0 0
v -14 -1 0
v -14 0 0
v -15 -1 0
v -15 0 0
v -16 -1 0
v -16 0 0
v 0 -2 0
v -1 -2 0
v -2 -2 0
v -3 -2 0
v -4 -2 0
v -5 -2 0
v -6 -2 0
v -7 -2 0
v -8 -2 0
v -9 -2 0
v -10 -2 0
v -11 -2 0
v -12 -2 0
v -13 -2 0
v -14 -2 0
v -15 -2 0
v -16 -2 0
v 0 -3 0
v -1 -3 0
v -2 -3 0
v -3 -3 0
v -4 -3 0
v -5 -3 0
v -6 -3 0
v -7 -3 0
v -8 -3 0
v -9 -3 0
v -10 -3 0
v -11 -3 0
v -12 -3 0
v -13 -3 0
v -14 -3 0
v -15 -3 0
v -16 -3 0
v 0 -4 0
v -1 -4 0
v -2 -4 0
v -3 -4 0
v -4 -4 0
v -5 -4 0
v -6 -4 0
v -7 -4 0
v -8 -4 0
v -9 -4 0
v -10 -4 0
v -11 -4 0
v -12 -4 0
v -13 -4 0
v -14 -4 0
v -15 -4 0
v -16 -4 0
v 0 -5 0
v -1 -5 0
v -2 -5 0
v -3 -5 0
v -4 -5 0
v -5 -5 0
v -6 -5 0
v -7 -5 0
v -8 -5 0
v -9 -5 0
v -10 -5 0
v -11 -5 0
v -12 -5 0
v -13 -5 0
v -14 -5 0
v -15 -5 0
v -16 -5 0
v 0 -6 0
v -1 -6 0
v -2 -6 0
v -3 -6 0
v -4 -6 0
v -5 -6 0
v -6 -6 0
v -7 -6 0
v -8 -6 0
v -9 -6 0
v -10 -6 0
v -11 -6 0
v -12 -6 0
v -13 -6 0
v -14 -6 0
v -15 -6 0
v -16 -6 0
v 0 -7 0
v -1 -7 0
v -2 -7 0
v -3 -7 0
v -4 -7 0
v -5 -7 0
v -6 -7 0
v -7 -7 0
v -8 -7 0
v -9 -7 0
v -10 -7 0
v -11 -7 0
v -12 -7 0
v -13 -7 0
v -14 -7 0
v -15 -7 0
v -16 -7 0
v 0 -8 0
v -1 -8 0
v -2 -8 0
v -3 -8 0
v -4 -8 0
v -5 -8 0
v -6 -8 0
v -7 -8 0
v -8 -8 0
v -9 -8 0
v -10 -8 0
v -11 -8 0
v -12 -8 0
v -13 -8 0
v -14 -8 0
v -15 -8 0
v -16 -8 0
v 0 -9 0
v -1 -9 0
v -2 -9 0
v -3 -9 0
v -4 -9 0
v -5 -9 0
v -6 -9 0
v -7 -9 0
v -8 -9 0
v -9 -9 0
v -10 -9 0
v -11 -9 0
v -12 -9 0
v -13 -9 0
v -14 -9 0
v -15 -9 0
v -16 -9 0
v 0 -10 0
v -1 -10 0
v -2 -10 0
v -3 -10 0
v -4 -10 0
v -5 -10 0
v -6 -10 0
v -7 -10 0
v -8 -10 0
v -9 -10 0
v -10 -10 0
v -11 -10 0
v -12 -10 0
v -13 -10 0
v -14 -10 0
v -15 -10 0
v -16 -10 0
v 0 -11 0
v -1 -11 0
v -2 -11 0
v -3 -11 0
v -4 -11 0
v -5 -11 0
v -6 -11 0
v -7 -11 0
v -8 -11 0
v -9 -11 0
v -10 -11 0
v -11 -11 0
v -12 -11 0
v -13 -11 0
v -14 -11 0
v -15 -11 0
v -16 -11 0
v 0 -12 0
v -1 -12 0
v -2 -12 0
v -3 -12 0
v -4 -12 0
v -5 -12 0
v -6 -12 0
v -7 -12 0
v -8 -12 0
v -9 -12 0
v -10 -12 0
v -11 -12 0
v -12 -12 0
v -13 -12 0
v -14 -12 0
v -15 -12 0
v -16 -12 0
v 0 -13 0
v -1 -13 0
v -2 -13 0
v -3 -13 0
v -4 -13 0
v -5 -13 0
v -6 -13 0
v -7 -13 0
v -8 -13 0
v -9 -13 0
v -10 -13 0
v -11 -13 0
v -12 -13 0
v -13 -13 0
v -14 -13 0
v -15 -13 0
v -16 -13 0
v 0 -14 0
v -1 -14 0
v -2 -14 0
v -3 -14 0
v -4 -14 0
v -5 -14 0
v -6 -14 0
v -7 -14 0
v -8 -14 0
v -9 -14 0
v -10 -14 0
v -11 -14 0
v -12 -14 0
v -13 -14 0
v -14 -14 0
v -15 -14 0
v -16 -14 0
v 0 -15 0
v -1 -15 0
v -2 -15 0
v -3 -15 0
v -4 -15 0
v -5 -15 0
v -6 -15 0
v -7 -15 0
v -8 -15 0
v -9 -15 0
v -10 -15 0
v -11 -15 0
v -12 -15 0
v -13 -15 0
v -14 -15 0
v -15 -15 0
v -16 -15 0
v 0 -16 0
v -1 -16 0
v -2 -16 0
v -3 -16 0
v -4 -16 0
v -5 -16 0
v -6 -16 0
v -7 -16 0
v -8 -16 0
v -9 -16 0
v -10 -16 0
v -11 -16 0
v -12 -16 0
v -13 -16 0
v -14 -16 0
v -15 -16 0
v -16 -16 0

# Texture cooridinates (Count = 56)
vt 0.1283166 0.6683613
vt 0.2490419 0.6683613
vt 0.2490419 0.8291261
vt 0.1283166 0.8291261
vt 0.3773732 0.5025322
vt 0.4980985 0.5025322
vt 0.4980985 0.6632969
vt 0.3773732 0.6632969
vt 0.1283166 0.5025322
vt 0.2490419 0.5025322
vt 0.2490419 0.6632969
vt 0.1283166 0.6632969
vt 0.5019015 0.5025322
vt 0.6226268 0.5025322
vt 0.6226268 0.6632969
vt 0.5019015 0.6632969
vt 0.2528449 0.6683613
vt 0.3735702 0.6683613
vt 0.3735702 0.8291261
vt 0.2528449 0.8291261
vt 0.6264299 0.3367031
vt 0.7471551 0.3367031
vt 0.7471551 0.4974678
vt 0.6264299 0.4974678
vt 0.003788325 0.6683613
vt 0.1245136 0.6683613
vt 0.1245136 0.8291261
vt 0.003788325 0.8291261
vt 0.3773732 0.3367031
vt 0.4980985 0.3367031
vt 0.4980985 0.4974678
vt 0.3773732 0.4974678
vt 0.1283166 0.8341905
vt 0.2490419 0.8341905
vt 0.2490419 0.9949552
vt 0.1283166 0.9949552
vt 0.2528449 0.8341905
vt 0.3735702 0.8341905
vt 0.3735702 0.9949552
vt 0.2528449 0.9949552
vt 0.003788325 0.8341905
vt 0.1245136 0.8341905
vt 0.1245136 0.9949552
vt 0.003788325 0.9949552
vt 0.5019015 0.3367031
vt 0.6226268 0.3367031
vt 0.6226268 0.4974678
vt 0.5019015 0.4974678
vt 0.2528449 0.5025322
vt 0.3735702 0.5025322
vt 0.3735702 0.6632969
vt 0.2528449 0.6632969
vt 0.003788325 0.5025322
vt 0.1245136 0.5025322
vt 0.1245136 0.6632969
vt 0.003788325 0.6632969

# Normal
vn 0 0 -1

# Groups (Count = 1)

g mesh_0001
f 1/1/1 2/2/1 3/3/1 4/4/1
f 2/1/1 5/2/1 6/3/1 3/4/1
f 5/1/1 7/2/1 8/3/1 6/4/1
f 7/1/1 9/2/1 10/3/1 8/4/1
f 9/1/1 11/2/1 12/3/1 10/4/1
f 11/1/1 13/2/1 14/3/1 12/4/1
f 13/1/1 15/2/1 16/3/1 14/4/1
f 15/1/1 17/2/1 18/3/1 16/4/1
f 17/1/1 19/2/1 20/3/1 18/4/1
f 19/1/1 21/2/1 22/3/1 20/4/1
f 21/1/1 23/2/1 24/3/1 22/4/1
f 23/1/1 25/2/1 26/3/1 24/4/1
f 25/1/1 27/2/1 28/3/1 26/4/1
f 27/1/1 29/2/1 30/3/1 28/4/1
f 29/1/1 31/2/1 32/3/1 30/4/1
f 31/1/1 33/2/1 34/3/1 32/4/1
f 35/1/1 36/2/1 2/3/1 1/4/1
f 36/5/1 37/6/1 5/7/1 2/8/1
f 37/9/1 38/10/1 7/11/1 5/12/1
f 38/9/1 39/10/1 9/11/1 7/12/1
f 39/9/1 40/10/1 11/11/1 9/12/1
f 40/9/1 41/10/1 13/11/1 11/12/1
f 41/9/1 42/10/1 15/11/1 13/12/1
f 42/9/1 43/10/1 17/11/1 15/12/1
f 43/9/1 44/10/1 19/11/1 17/12/1
f 44/9/1 45/10/1 21/11/1 19/12/1
f 45/9/1 46/10/1 23/11/1 21/12/1
f 46/9/1 47/10/1 25/11/1 23/12/1
f 47/9/1 48/10/1 27/11/1 25/12/1
f 48/9/1 49/10/1 29/11/1 27/12/1
f 49/13/1 50/14/1 31/15/1 29/16/1
f 50/1/1 51/2/1 33/3/1 31/4/1
f 52/1/1 53/2/1 36/3/1 35/4/1
f 53/17/1 54/18/1 37/19/1 36/20/1
f 54/21/1 55/22/1 38/23/1 37/24/1
f 55/21/1 56/22/1 39/23/1 38/24/1
f 56/21/1 57/22/1 40/23/1 39/24/1
f 57/21/1 58/22/1 41/23/1 40/24/1
f 58/21/1 59/22/1 42/23/1 41/24/1
f 59/21/1 60/22/1 43/23/1 42/24/1
f 60/21/1 61/22/1 44/23/1 43/24/1
f 61/21/1 62/22/1 45/23/1 44/24/1
f 62/21/1 63/22/1 46/23/1 45/24/1
f 63/21/1 64/22/1 47/23/1 46/24/1
f 64/21/1 65/22/1 48/23/1 47/24/1
f 65/21/1 66/22/1 49/23/1 48/24/1
f 66/25/1 67/26/1 50/27/1 49/28/1
f 67/1/1 68/2/1 51/3/1 50/4/1
f 69/1/1 70/2/1 53/3/1 52/4/1
f 70/29/1 71/30/1 54/31/1 53/32/1
f 71/33/1 72/34/1 55/35/1 54/36/1
f 72/37/1 73/38/1 56/39/1 55/40/1
f 73/21/1 74/22/1 57/23/1 56/24/1
f 74/21/1 75/22/1 58/23/1 57/24/1
f 75/21/1 76/22/1 59/23/1 58/24/1
f 76/21/1 77/22/1 60/23/1 59/24/1
f 77/41/1 78/42/1 61/43/1 60/44/1
f 78/33/1 79/34/1 62/35/1 61/36/1
f 79/33/1 80/34/1 63/35/1 62/36/1
f 80/33/1 81/34/1 64/35/1 63/36/1
f 81/33/1 82/34/1 65/35/1 64/36/1
f 82/33/1 83/34/1 66/35/1 65/36/1
f 83/45/1 84/46/1 67/47/1 66/48/1
f 84/1/1 85/2/1 68/3/1 67/4/1
f 86/1/1 87/2/1 70/3/1 69/4/1
f 87/1/1 88/2/1 71/3/1 70/4/1
f 88/1/1 89/2/1 72/3/1 71/4/1
f 89/17/1 90/18/1 73/19/1 72/20/1
f 90/21/1 91/22/1 74/23/1 73/24/1
f 91/21/1 92/22/1 75/23/1 74/24/1
f 92/21/1 93/22/1 76/23/1 75/24/1
f 93/21/1 94/22/1 77/23/1 76/24/1
f 94/25/1 95/26/1 78/27/1 77/28/1
f 95/1/1 96/2/1 79/3/1 78/4/1
f 96/1/1 97/2/1 80/3/1 79/4/1
f 97/1/1 98/2/1 81/3/1 80/4/1
f 98/1/1 99/2/1 82/3/1 81/4/1
f 99/1/1 100/2/1 83/3/1 82/4/1
f 100/1/1 101/2/1 84/3/1 83/4/1
f 101/1/1 102/2/1 85/3/1 84/4/1
f 103/1/1 104/2/1 87/3/1 86/4/1
f 104/5/1 105/6/1 88/7/1 87/8/1
f 105/9/1 106/10/1 89/11/1 88/12/1
f 106/49/1 107/50/1 90/51/1 89/52/1
f 107/21/1 108/22/1 91/23/1 90/24/1
f 108/21/1 109/22/1 92/23/1 91/24/1
f 109/21/1 110/22/1 93/23/1 92/24/1
f 110/21/1 111/22/1 94/23/1 93/24/1
f 111/53/1 112/54/1 95/55/1 94/56/1
f 112/9/1 113/10/1 96/11/1 95/12/1
f 113/9/1 114/10/1 97/11/1 96/12/1
f 114/9/1 115/10/1 98/11/1 97/12/1
f 115/9/1 116/10/1 99/11/1 98/12/1
f 116/9/1 117/10/1 100/11/1 99/12/1
f 117/13/1 118/14/1 101/15/1 100/16/1
f 118/1/1 119/2/1 102/3/1 101/4/1
f 120/1/1 121/2/1 104/3/1 103/4/1
f 121/17/1 122/18/1 105/19/1 104/20/1
f 122/21/1 123/22/1 106/23/1 105/24/1
f 123/21/1 124/22/1 107/23/1 106/24/1
f 124/21/1 125/22/1 108/23/1 107/24/1
f 125/21/1 126/22/1 109/23/1 108/24/1
f 126/21/1 127/22/1 110/23/1 109/24/1
f 127/21/1 128/22/1 111/23/1 110/24/1
f 128/21/1 129/22/1 112/23/1 111/24/1
f 129/21/1 130/22/1 113/23/1 112/24/1
f 130/21/1 131/22/1 114/23/1 113/24/1
f 131/21/1 132/22/1 115/23/1 114/24/1
f 132/21/1 133/22/1 116/23/1 115/24/1
f 133/21/1 134/22/1 117/23/1 116/24/1
f 134/25/1 135/26/1 118/27/1 117/28/1
f 135/1/1 136/2/1 119/3/1 118/4/1
f 137/1/1 138/2/1 121/3/1 120/4/1
f 138/17/1 139/18/1 122/19/1 121/20/1
f 139/21/1 140/22/1 123/23/1 122/24/1
f 140/21/1 141/22/1 124/23/1 123/24/1
f 141/21/1 142/22/1 125/23/1 124/24/1
f 142/21/1 143/22/1 126/23/1 125/24/1
f 143/21/1 144/22/1 127/23/1 126/24/1
f 144/21/1 145/22/1 128/23/1 127/24/1
f 145/21/1 146/22/1 129/23/1 128/24/1
f 146/21/1 147/22/1 130/23/1 129/24/1
f 147/21/1 148/22/1 131/23/1 130/24/1
f 148/21/1 149/22/1 132/23/1 131/24/1
f 149/21/1 150/22/1 133/23/1 132/24/1
f 150/21/1 151/22/1 134/23/1 133/24/1
f 151/25/1 152/26/1 135/27/1 134/28/1
f 152/1/1 153/2/1 136/3/1 135/4/1
f 154/1/1 155/2/1 138/3/1 137/4/1
f 155/17/1 156/18/1 139/19/1 138/20/1
f 156/21/1 157/22/1 140/23/1 139/24/1
f 157/21/1 158/22/1 141/23/1 140/24/1
f 158/21/1 159/22/1 142/23/1 141/24/1
f 159/41/1 160/42/1 143/43/1 142/44/1
f 160/33/1 161/34/1 144/35/1 143/36/1
f 161/37/1 162/38/1 145/39/1 144/40/1
f 162/21/1 163/22/1 146/23/1 145/24/1
f 163/21/1 164/22/1 147/23/1 146/24/1
f 164/21/1 165/22/1 148/23/1 147/24/1
f 165/21/1 166/22/1 149/23/1 148/24/1
f 166/21/1 167/22/1 150/23/1 149/24/1
f 167/21/1 168/22/1 151/23/1 150/24/1
f 168/25/1 169/26/1 152/27/1 151/28/1
f 169/1/1 170/2/1 153/3/1 152/4/1
f 171/1/1 172/2/1 155/3/1 154/4/1
f 172/17/1 173/18/1 156/19/1 155/20/1
f 173/21/1 174/22/1 157/23/1 156/24/1
f 174/21/1 175/22/1 158/23/1 157/24/1
f 175/21/1 176/22/1 159/23/1 158/24/1
f 176/25/1 177/26/1 160/27/1 159/28/1
f 177/1/1 178/2/1 161/3/1 160/4/1
f 178/17/1 179/18/1 162/19/1 161/20/1
f 179/21/1 180/22/1 163/23/1 162/24/1
f 180/41/1 181/42/1 164/43/1 163/44/1
f 181/33/1 182/34/1 165/35/1 164/36/1
f 182/33/1 183/34/1 166/35/1 165/36/1
f 183/33/1 184/34/1 167/35/1 166/36/1
f 184/33/1 185/34/1 168/35/1 167/36/1
f 185/45/1 186/46/1 169/47/1 168/48/1
f 186/1/1 187/2/1 170/3/1 169/4/1
f 188/1/1 189/2/1 172/3/1 171/4/1
f 189/17/1 190/18/1 173/19/1 172/20/1
f 190/21/1 191/22/1 174/23/1 173/24/1
f 191/21/1 192/22/1 175/23/1 174/24/1
f 192/21/1 193/22/1 176/23/1 175/24/1
f 193/53/1 194/54/1 177/55/1 176/56/1
f 194/9/1 195/10/1 178/11/1 177/12/1
f 195/49/1 196/50/1 179/51/1 178/52/1
f 196/21/1 197/22/1 180/23/1 179/24/1
f 197/25/1 198/26/1 181/27/1 180/28/1
f 198/1/1 199/2/1 182/3/1 181/4/1
f 199/1/1 200/2/1 183/3/1 182/4/1
f 200/1/1 201/2/1 184/3/1 183/4/1
f 201/1/1 202/2/1 185/3/1 184/4/1
f 202/1/1 203/2/1 186/3/1 185/4/1
f 203/1/1 204/2/1 187/3/1 186/4/1
f 205/1/1 206/2/1 189/3/1 188/4/1
f 206/29/1 207/30/1 190/31/1 189/32/1
f 207/33/1 208/34/1 191/35/1 190/36/1
f 208/37/1 209/38/1 192/39/1 191/40/1
f 209/21/1 210/22/1 193/23/1 192/24/1
f 210/21/1 211/22/1 194/23/1 193/24/1
f 211/21/1 212/22/1 195/23/1 194/24/1
f 212/21/1 213/22/1 196/23/1 195/24/1
f 213/21/1 214/22/1 197/23/1 196/24/1
f 214/53/1 215/54/1 198/55/1 197/56/1
f 215/9/1 216/10/1 199/11/1 198/12/1
f 216/9/1 217/10/1 200/11/1 199/12/1
f 217/9/1 218/10/1 201/11/1 200/12/1
f 218/9/1 219/10/1 202/11/1 201/12/1
f 219/13/1 220/14/1 203/15/1 202/16/1
f 220/1/1 221/2/1 204/3/1 203/4/1
f 222/1/1 223/2/1 206/3/1 205/4/1
f 223/1/1 224/2/1 207/3/1 206/4/1
f 224/1/1 225/2/1 208/3/1 207/4/1
f 225/29/1 226/30/1 209/31/1 208/32/1
f 226/37/1 227/38/1 210/39/1 209/40/1
f 227/21/1 228/22/1 211/23/1 210/24/1
f 228/21/1 229/22/1 212/23/1 211/24/1
f 229/21/1 230/22/1 213/23/1 212/24/1
f 230/21/1 231/22/1 214/23/1 213/24/1
f 231/21/1 232/22/1 215/23/1 214/24/1
f 232/21/1 233/22/1 216/23/1 215/24/1
f 233/21/1 234/22/1 217/23/1 216/24/1
f 234/21/1 235/22/1 218/23/1 217/24/1
f 235/21/1 236/22/1 219/23/1 218/24/1
f 236/25/1 237/26/1 220/27/1 219/28/1
f 237/1/1 238/2/1 221/3/1 220/4/1
f 239/1/1 240/2/1 223/3/1 222/4/1
f 240/1/1 241/2/1 224/3/1 223/4/1
f 241/1/1 242/2/1 225/3/1 224/4/1
f 242/1/1 243/2/1 226/3/1 225/4/1
f 243/29/1 244/30/1 227/31/1 226/32/1
f 244/37/1 245/38/1 228/39/1 227/40/1
f 245/21/1 246/22/1 229/23/1 228/24/1
f 246/21/1 247/22/1 230/23/1 229/24/1
f 247/21/1 248/22/1 231/23/1 230/24/1
f 248/21/1 249/22/1 232/23/1 231/24/1
f 249/21/1 250/22/1 233/23/1 232/24/1
f 250/21/1 251/22/1 234/23/1 233/24/1
f 251/21/1 252/22/1 235/23/1 234/24/1
f 252/21/1 253/22/1 236/23/1 235/24/1
f 253/25/1 254/26/1 237/27/1 236/28/1
f 254/1/1 255/2/1 238/3/1 237/4/1
f 256/1/1 257/2/1 240/3/1 239/4/1
f 257/1/1 258/2/1 241/3/1 240/4/1
f 258/1/1 259/2/1 242/3/1 241/4/1
f 259/1/1 260/2/1 243/3/1 242/4/1
f 260/1/1 261/2/1 244/3/1 243/4/1
f 261/29/1 262/30/1 245/31/1 244/32/1
f 262/37/1 263/38/1 246/39/1 245/40/1
f 263/21/1 264/22/1 247/23/1 246/24/1
f 264/21/1 265/22/1 248/23/1 247/24/1
f 265/41/1 266/42/1 249/43/1 248/44/1
f 266/33/1 267/34/1 250/35/1 249/36/1
f 267/33/1 268/34/1 251/35/1 250/36/1
f 268/33/1 269/34/1 252/35/1 251/36/1
f 269/33/1 270/34/1 253/35/1 252/36/1
f 270/45/1 271/46/1 254/47/1 253/48/1
f 271/1/1 272/2/1 255/3/1 254/4/1
f 273/1/1 274/2/1 257/3/1 256/4/1
f 274/1/1 275/2/1 258/3/1 257/4/1
f 275/1/1 276/2/1 259/3/1 258/4/1
f 276/1/1 277/2/1 260/3/1 259/4/1
f 277/1/1 278/2/1 261/3/1 260/4/1
f 278/1/1 279/2/1 262/3/1 261/4/1
f 279/17/1 280/18/1 263/19/1 262/20/1
f 280/21/1 281/22/1 264/23/1 263/24/1
f 281/21/1 282/22/1 265/23/1 264/24/1
f 282/25/1 283/26/1 266/27/1 265/28/1
f 283/1/1 284/2/1 267/3/1 266/4/1
f 284/1/1 285/2/1 268/3/1 267/4/1
f 285/1/1 286/2/1 269/3/1 268/4/1
f 286/1/1 287/2/1 270/3/1 269/4/1
f 287/1/1 288/2/1 271/3/1 270/4/1
f 288/1/1 289/2/1 272/3/1 271/4/1

